<svg width="24" height="24" viewBox="0 0 24 24" fill="none" xmlns="http://www.w3.org/2000/svg">
<path d="M5.80615 14.6758V16.9696C5.80615 19.1323 5.80615 20.2136 6.478 20.8855C7.14986 21.5573 8.23119 21.5573 10.3938 21.5573H13.4523C15.615 21.5573 16.6963 21.5573 17.3681 20.8855C18.04 20.2136 18.04 19.1323 18.04 16.9696V14.6758" stroke="#97A2B0" stroke-width="1.5" stroke-linecap="round"/>
<path d="M5.80598 14.6119C3.63623 14.2479 1.98291 12.3609 1.98291 10.0877C1.98291 7.55398 4.03689 5.5 6.5706 5.5C6.88542 5.5 7.19283 5.53171 7.48982 5.59211" stroke="#97A2B0" stroke-width="1.5" stroke-linecap="round"/>
<path d="M18.1946 14.6119C20.3643 14.2479 22.0177 12.3609 22.0177 10.0877C22.0177 7.55398 19.9637 5.5 17.43 5.5C17.1151 5.5 16.8077 5.53171 16.5107 5.59211" stroke="#97A2B0" stroke-width="1.5" stroke-linecap="round"/>
<path d="M7.47998 8.17602C7.38563 7.80944 7.33545 7.42513 7.33545 7.0291C7.33545 4.49538 9.38943 2.44141 11.9231 2.44141C14.4568 2.44141 16.5108 4.49538 16.5108 7.0291C16.5108 7.42513 16.4606 7.80944 16.3663 8.17602" stroke="#97A2B0" stroke-width="1.5" stroke-linecap="round"/>
<path d="M5.80615 18.1152H18.04" stroke="#97A2B0" stroke-width="1.5"/>
<path d="M11.8931 10.7324V13.135" stroke="#97A2B0" stroke-width="1.5" stroke-linecap="round"/>
<path d="M7.64418 10.9336C7.45211 11.3626 7.80422 12.9982 8.22036 13.2662" stroke="#97A2B0" stroke-width="1.5" stroke-linecap="round"/>
<path d="M16.4569 10.9336C16.649 11.3626 16.2969 12.9982 15.8807 13.2662" stroke="#97A2B0" stroke-width="1.5" stroke-linecap="round"/>
</svg>
