<svg width="20" height="20" viewBox="0 0 20 20" fill="none" xmlns="http://www.w3.org/2000/svg">
<g clip-path="url(#clip0_2159_12504)">
<path fill-rule="evenodd" clip-rule="evenodd" d="M10.0002 0.833984C10.2212 0.833984 10.4331 0.921782 10.5894 1.07806C10.7457 1.23434 10.8335 1.4463 10.8335 1.66732V3.33398C10.8335 3.555 10.7457 3.76696 10.5894 3.92324C10.4331 4.07952 10.2212 4.16732 10.0002 4.16732C9.77915 4.16732 9.56719 4.07952 9.41091 3.92324C9.25463 3.76696 9.16683 3.555 9.16683 3.33398V1.66732C9.16683 1.4463 9.25463 1.23434 9.41091 1.07806C9.56719 0.921782 9.77915 0.833984 10.0002 0.833984ZM5.00016 10.0007C5.00016 8.67457 5.52695 7.4028 6.46463 6.46512C7.40231 5.52743 8.67408 5.00065 10.0002 5.00065C11.3262 5.00065 12.598 5.52743 13.5357 6.46512C14.4734 7.4028 15.0002 8.67457 15.0002 10.0007C15.0002 11.3267 14.4734 12.5985 13.5357 13.5362C12.598 14.4739 11.3262 15.0006 10.0002 15.0006C8.67408 15.0006 7.40231 14.4739 6.46463 13.5362C5.52695 12.5985 5.00016 11.3267 5.00016 10.0007ZM10.0002 6.66732C9.11611 6.66732 8.26826 7.01851 7.64314 7.64363C7.01802 8.26875 6.66683 9.1166 6.66683 10.0007C6.66683 10.8847 7.01802 11.7326 7.64314 12.3577C8.26826 12.9828 9.11611 13.334 10.0002 13.334C10.8842 13.334 11.7321 12.9828 12.3572 12.3577C12.9823 11.7326 13.3335 10.8847 13.3335 10.0007C13.3335 9.1166 12.9823 8.26875 12.3572 7.64363C11.7321 7.01851 10.8842 6.66732 10.0002 6.66732ZM10.8335 16.6673C10.8335 16.4463 10.7457 16.2343 10.5894 16.0781C10.4331 15.9218 10.2212 15.834 10.0002 15.834C9.77915 15.834 9.56719 15.9218 9.41091 16.0781C9.25463 16.2343 9.16683 16.4463 9.16683 16.6673V18.334C9.16683 18.555 9.25463 18.767 9.41091 18.9232C9.56719 19.0795 9.77915 19.1673 10.0002 19.1673C10.2212 19.1673 10.4331 19.0795 10.5894 18.9232C10.7457 18.767 10.8335 18.555 10.8335 18.334V16.6673ZM19.1668 10.0007C19.1668 10.2217 19.079 10.4336 18.9227 10.5899C18.7665 10.7462 18.5545 10.834 18.3335 10.834H16.6668C16.4458 10.834 16.2339 10.7462 16.0776 10.5899C15.9213 10.4336 15.8335 10.2217 15.8335 10.0007C15.8335 9.77964 15.9213 9.56767 16.0776 9.4114C16.2339 9.25511 16.4458 9.16732 16.6668 9.16732H18.3335C18.5545 9.16732 18.7665 9.25511 18.9227 9.4114C19.079 9.56767 19.1668 9.77964 19.1668 10.0007ZM3.3335 10.834C3.55451 10.834 3.76647 10.7462 3.92275 10.5899C4.07903 10.4336 4.16683 10.2217 4.16683 10.0007C4.16683 9.77964 4.07903 9.56767 3.92275 9.4114C3.76647 9.25511 3.55451 9.16732 3.3335 9.16732H1.66683C1.44582 9.16732 1.23385 9.25511 1.07757 9.4114C0.921293 9.56767 0.833496 9.77964 0.833496 10.0007C0.833496 10.2217 0.921293 10.4336 1.07757 10.5899C1.23385 10.7462 1.44582 10.834 1.66683 10.834H3.3335ZM16.4818 3.51898C16.6381 3.67526 16.7258 3.88718 16.7258 4.10815C16.7258 4.32912 16.6381 4.54104 16.4818 4.69732L15.3035 5.87565C15.2266 5.95524 15.1347 6.01873 15.033 6.0624C14.9313 6.10608 14.822 6.12906 14.7113 6.13003C14.6007 6.13099 14.4909 6.1099 14.3885 6.068C14.2861 6.0261 14.1931 5.96422 14.1148 5.88598C14.0366 5.80774 13.9747 5.71469 13.9328 5.61228C13.8909 5.50987 13.8698 5.40013 13.8708 5.28948C13.8717 5.17883 13.8947 5.06948 13.9384 4.96781C13.9821 4.86614 14.0456 4.77419 14.1252 4.69732L15.3035 3.51898C15.4598 3.36276 15.6717 3.275 15.8927 3.275C16.1136 3.275 16.3256 3.36276 16.4818 3.51898ZM5.87516 15.304C5.95475 15.2271 6.01824 15.1352 6.06191 15.0335C6.10559 14.9318 6.12858 14.8225 6.12954 14.7118C6.1305 14.6012 6.10941 14.4914 6.06751 14.389C6.02561 14.2866 5.96374 14.1936 5.88549 14.1153C5.80725 14.0371 5.7142 13.9752 5.61179 13.9333C5.50938 13.8914 5.39964 13.8703 5.28899 13.8713C5.17834 13.8722 5.06899 13.8952 4.96733 13.9389C4.86565 13.9826 4.7737 14.0461 4.69683 14.1257L3.5185 15.304C3.4389 15.3809 3.37542 15.4728 3.33174 15.5745C3.28807 15.6761 3.26508 15.7855 3.26412 15.8961C3.26316 16.0068 3.28424 16.1165 3.32614 16.2189C3.36804 16.3214 3.42992 16.4144 3.50817 16.4926C3.58641 16.5709 3.67945 16.6328 3.78187 16.6747C3.88428 16.7166 3.99401 16.7377 4.10466 16.7367C4.21531 16.7357 4.32466 16.7127 4.42633 16.6691C4.528 16.6254 4.61996 16.5619 4.69683 16.4823L5.87516 15.304ZM3.5185 3.51898C3.67477 3.36276 3.88669 3.275 4.10766 3.275C4.32863 3.275 4.54056 3.36276 4.69683 3.51898L5.87516 4.69732C5.95475 4.77419 6.01824 4.86614 6.06191 4.96781C6.10559 5.06948 6.12858 5.17883 6.12954 5.28948C6.1305 5.40013 6.10941 5.50987 6.06751 5.61228C6.02561 5.71469 5.96374 5.80774 5.88549 5.88598C5.80725 5.96422 5.7142 6.0261 5.61179 6.068C5.50938 6.1099 5.39964 6.13099 5.28899 6.13003C5.17834 6.12906 5.06899 6.10608 4.96733 6.0624C4.86565 6.01873 4.7737 5.95524 4.69683 5.87565L3.5185 4.69732C3.36227 4.54104 3.27451 4.32912 3.27451 4.10815C3.27451 3.88718 3.36227 3.67526 3.5185 3.51898ZM15.3035 14.1257C15.1463 13.9739 14.9358 13.8899 14.7173 13.8918C14.4988 13.8937 14.2898 13.9813 14.1353 14.1358C13.9808 14.2903 13.8932 14.4993 13.8913 14.7178C13.8894 14.9363 13.9734 15.1468 14.1252 15.304L15.3035 16.4823C15.4607 16.6341 15.6712 16.7181 15.8897 16.7162C16.1082 16.7143 16.3172 16.6267 16.4717 16.4722C16.6262 16.3177 16.7138 16.1086 16.7157 15.8902C16.7176 15.6717 16.6336 15.4612 16.4818 15.304L15.3035 14.1257Z" fill="#4D8194"/>
</g>
<defs>
<clipPath id="clip0_2159_12504">
<rect width="20" height="20" fill="white"/>
</clipPath>
</defs>
</svg>
